<mxfile host="app.diagrams.net" modified="2023-05-18T09:34:32.564Z" agent="5.0 (Windows NT 10.0; Win64; x64) AppleWebKit/537.36 (KHTML, like Gecko) Chrome/102.0.0.0 Safari/537.36" etag="J3p9xEjBW9pdUpdCxApI" version="21.0.8" type="github">
  <diagram id="C5RBs43oDa-KdzZeNtuy" name="Page-1">
    <mxGraphModel dx="1877" dy="549" grid="1" gridSize="10" guides="1" tooltips="1" connect="1" arrows="1" fold="1" page="1" pageScale="1" pageWidth="827" pageHeight="1169" math="0" shadow="0">
      <root>
        <mxCell id="WIyWlLk6GJQsqaUBKTNV-0" />
        <mxCell id="WIyWlLk6GJQsqaUBKTNV-1" parent="WIyWlLk6GJQsqaUBKTNV-0" />
        <mxCell id="dtLqzSOW9jpUZC_-jgEE-11" value="" style="edgeStyle=orthogonalEdgeStyle;rounded=0;orthogonalLoop=1;jettySize=auto;html=1;" edge="1" parent="WIyWlLk6GJQsqaUBKTNV-1" source="dtLqzSOW9jpUZC_-jgEE-0" target="dtLqzSOW9jpUZC_-jgEE-1">
          <mxGeometry relative="1" as="geometry" />
        </mxCell>
        <mxCell id="dtLqzSOW9jpUZC_-jgEE-0" value="&lt;font data-font-src=&quot;https://fonts.googleapis.com/css?family=%E5%AE%8B%E4%BD%93&quot; face=&quot;宋体&quot;&gt;实际问题参数集&lt;/font&gt;" style="rounded=0;whiteSpace=wrap;html=1;" vertex="1" parent="WIyWlLk6GJQsqaUBKTNV-1">
          <mxGeometry x="140" y="40" width="100" height="40" as="geometry" />
        </mxCell>
        <mxCell id="dtLqzSOW9jpUZC_-jgEE-12" value="" style="edgeStyle=orthogonalEdgeStyle;rounded=0;orthogonalLoop=1;jettySize=auto;html=1;" edge="1" parent="WIyWlLk6GJQsqaUBKTNV-1" source="dtLqzSOW9jpUZC_-jgEE-1" target="dtLqzSOW9jpUZC_-jgEE-2">
          <mxGeometry relative="1" as="geometry" />
        </mxCell>
        <mxCell id="dtLqzSOW9jpUZC_-jgEE-1" value="&lt;font data-font-src=&quot;https://fonts.googleapis.com/css?family=%E5%AE%8B%E4%BD%93&quot; face=&quot;宋体&quot;&gt;编码&lt;/font&gt;" style="rounded=0;whiteSpace=wrap;html=1;" vertex="1" parent="WIyWlLk6GJQsqaUBKTNV-1">
          <mxGeometry x="140" y="120" width="100" height="40" as="geometry" />
        </mxCell>
        <mxCell id="dtLqzSOW9jpUZC_-jgEE-13" value="" style="edgeStyle=orthogonalEdgeStyle;rounded=0;orthogonalLoop=1;jettySize=auto;html=1;" edge="1" parent="WIyWlLk6GJQsqaUBKTNV-1" source="dtLqzSOW9jpUZC_-jgEE-2" target="dtLqzSOW9jpUZC_-jgEE-3">
          <mxGeometry relative="1" as="geometry" />
        </mxCell>
        <mxCell id="dtLqzSOW9jpUZC_-jgEE-2" value="&lt;font data-font-src=&quot;https://fonts.googleapis.com/css?family=%E5%AE%8B%E4%BD%93&quot; face=&quot;宋体&quot;&gt;种群t&lt;/font&gt;" style="rounded=0;whiteSpace=wrap;html=1;" vertex="1" parent="WIyWlLk6GJQsqaUBKTNV-1">
          <mxGeometry x="140" y="200" width="100" height="40" as="geometry" />
        </mxCell>
        <mxCell id="dtLqzSOW9jpUZC_-jgEE-14" value="" style="edgeStyle=orthogonalEdgeStyle;rounded=0;orthogonalLoop=1;jettySize=auto;html=1;" edge="1" parent="WIyWlLk6GJQsqaUBKTNV-1" source="dtLqzSOW9jpUZC_-jgEE-3" target="dtLqzSOW9jpUZC_-jgEE-4">
          <mxGeometry relative="1" as="geometry" />
        </mxCell>
        <mxCell id="dtLqzSOW9jpUZC_-jgEE-3" value="&lt;font data-font-src=&quot;https://fonts.googleapis.com/css?family=%E5%AE%8B%E4%BD%93&quot; face=&quot;宋体&quot;&gt;计算适应值&lt;/font&gt;" style="rounded=0;whiteSpace=wrap;html=1;" vertex="1" parent="WIyWlLk6GJQsqaUBKTNV-1">
          <mxGeometry x="140" y="280" width="100" height="40" as="geometry" />
        </mxCell>
        <mxCell id="dtLqzSOW9jpUZC_-jgEE-15" value="" style="edgeStyle=orthogonalEdgeStyle;rounded=0;orthogonalLoop=1;jettySize=auto;html=1;" edge="1" parent="WIyWlLk6GJQsqaUBKTNV-1" source="dtLqzSOW9jpUZC_-jgEE-4" target="dtLqzSOW9jpUZC_-jgEE-5">
          <mxGeometry relative="1" as="geometry" />
        </mxCell>
        <mxCell id="dtLqzSOW9jpUZC_-jgEE-4" value="&lt;font data-font-src=&quot;https://fonts.googleapis.com/css?family=%E5%AE%8B%E4%BD%93&quot; face=&quot;宋体&quot;&gt;选择与遗传&lt;/font&gt;" style="rounded=0;whiteSpace=wrap;html=1;" vertex="1" parent="WIyWlLk6GJQsqaUBKTNV-1">
          <mxGeometry x="140" y="360" width="100" height="40" as="geometry" />
        </mxCell>
        <mxCell id="dtLqzSOW9jpUZC_-jgEE-16" value="" style="edgeStyle=orthogonalEdgeStyle;rounded=0;orthogonalLoop=1;jettySize=auto;html=1;" edge="1" parent="WIyWlLk6GJQsqaUBKTNV-1" source="dtLqzSOW9jpUZC_-jgEE-5" target="dtLqzSOW9jpUZC_-jgEE-6">
          <mxGeometry relative="1" as="geometry" />
        </mxCell>
        <mxCell id="dtLqzSOW9jpUZC_-jgEE-5" value="&lt;font data-font-src=&quot;https://fonts.googleapis.com/css?family=%E5%AE%8B%E4%BD%93&quot; face=&quot;宋体&quot;&gt;种群t+1&lt;/font&gt;" style="rounded=0;whiteSpace=wrap;html=1;" vertex="1" parent="WIyWlLk6GJQsqaUBKTNV-1">
          <mxGeometry x="140" y="440" width="100" height="40" as="geometry" />
        </mxCell>
        <mxCell id="dtLqzSOW9jpUZC_-jgEE-17" value="" style="edgeStyle=orthogonalEdgeStyle;rounded=0;orthogonalLoop=1;jettySize=auto;html=1;" edge="1" parent="WIyWlLk6GJQsqaUBKTNV-1" source="dtLqzSOW9jpUZC_-jgEE-6" target="dtLqzSOW9jpUZC_-jgEE-7">
          <mxGeometry relative="1" as="geometry" />
        </mxCell>
        <mxCell id="dtLqzSOW9jpUZC_-jgEE-20" style="edgeStyle=orthogonalEdgeStyle;rounded=0;orthogonalLoop=1;jettySize=auto;html=1;entryX=0.5;entryY=1;entryDx=0;entryDy=0;" edge="1" parent="WIyWlLk6GJQsqaUBKTNV-1" source="dtLqzSOW9jpUZC_-jgEE-6" target="dtLqzSOW9jpUZC_-jgEE-10">
          <mxGeometry relative="1" as="geometry" />
        </mxCell>
        <mxCell id="dtLqzSOW9jpUZC_-jgEE-6" value="&lt;font data-font-src=&quot;https://fonts.googleapis.com/css?family=%E5%AE%8B%E4%BD%93&quot; face=&quot;宋体&quot;&gt;最大进化迭代次数&lt;/font&gt;" style="rhombus;whiteSpace=wrap;html=1;" vertex="1" parent="WIyWlLk6GJQsqaUBKTNV-1">
          <mxGeometry x="120" y="520" width="140" height="80" as="geometry" />
        </mxCell>
        <mxCell id="dtLqzSOW9jpUZC_-jgEE-18" value="" style="edgeStyle=orthogonalEdgeStyle;rounded=0;orthogonalLoop=1;jettySize=auto;html=1;" edge="1" parent="WIyWlLk6GJQsqaUBKTNV-1" source="dtLqzSOW9jpUZC_-jgEE-7" target="dtLqzSOW9jpUZC_-jgEE-8">
          <mxGeometry relative="1" as="geometry" />
        </mxCell>
        <mxCell id="dtLqzSOW9jpUZC_-jgEE-7" value="&lt;font data-font-src=&quot;https://fonts.googleapis.com/css?family=%E5%AE%8B%E4%BD%93&quot; face=&quot;宋体&quot;&gt;解码&lt;/font&gt;" style="rounded=0;whiteSpace=wrap;html=1;" vertex="1" parent="WIyWlLk6GJQsqaUBKTNV-1">
          <mxGeometry x="135" y="640" width="110" height="40" as="geometry" />
        </mxCell>
        <mxCell id="dtLqzSOW9jpUZC_-jgEE-8" value="&lt;font data-font-src=&quot;https://fonts.googleapis.com/css?family=%E5%AE%8B%E4%BD%93&quot; face=&quot;宋体&quot;&gt;改善或解决实际问题&lt;/font&gt;" style="rounded=0;whiteSpace=wrap;html=1;" vertex="1" parent="WIyWlLk6GJQsqaUBKTNV-1">
          <mxGeometry x="130" y="720" width="120" height="40" as="geometry" />
        </mxCell>
        <mxCell id="dtLqzSOW9jpUZC_-jgEE-19" value="" style="edgeStyle=orthogonalEdgeStyle;rounded=0;orthogonalLoop=1;jettySize=auto;html=1;" edge="1" parent="WIyWlLk6GJQsqaUBKTNV-1" source="dtLqzSOW9jpUZC_-jgEE-9" target="dtLqzSOW9jpUZC_-jgEE-4">
          <mxGeometry relative="1" as="geometry" />
        </mxCell>
        <mxCell id="dtLqzSOW9jpUZC_-jgEE-9" value="&lt;div style=&quot;&quot;&gt;&lt;span style=&quot;background-color: initial;&quot;&gt;&lt;font data-font-src=&quot;https://fonts.googleapis.com/css?family=%E5%AE%8B%E4%BD%93&quot;&gt;三种基本遗传算子：&lt;/font&gt;&lt;/span&gt;&lt;/div&gt;&lt;div style=&quot;&quot;&gt;&lt;span style=&quot;background-color: initial;&quot;&gt;&lt;font data-font-src=&quot;https://fonts.googleapis.com/css?family=%E5%AE%8B%E4%BD%93&quot;&gt;1选择算子&lt;/font&gt;&lt;/span&gt;&lt;/div&gt;&lt;div style=&quot;&quot;&gt;&lt;span style=&quot;background-color: initial;&quot;&gt;&lt;font data-font-src=&quot;https://fonts.googleapis.com/css?family=%E5%AE%8B%E4%BD%93&quot;&gt;2交叉算子&lt;/font&gt;&lt;/span&gt;&lt;/div&gt;&lt;div style=&quot;&quot;&gt;&lt;span style=&quot;background-color: initial;&quot;&gt;&lt;font data-font-src=&quot;https://fonts.googleapis.com/css?family=%E5%AE%8B%E4%BD%93&quot;&gt;3.变异算子&lt;/font&gt;&lt;/span&gt;&lt;/div&gt;" style="rounded=0;whiteSpace=wrap;html=1;align=left;fontFamily=宋体;fontSource=https%3A%2F%2Ffonts.googleapis.com%2Fcss%3Ffamily%3D%25E5%25AE%258B%25E4%25BD%2593;" vertex="1" parent="WIyWlLk6GJQsqaUBKTNV-1">
          <mxGeometry x="-70" y="350" width="120" height="60" as="geometry" />
        </mxCell>
        <mxCell id="dtLqzSOW9jpUZC_-jgEE-21" style="edgeStyle=orthogonalEdgeStyle;rounded=0;orthogonalLoop=1;jettySize=auto;html=1;exitX=0.5;exitY=0;exitDx=0;exitDy=0;entryX=1;entryY=0.5;entryDx=0;entryDy=0;" edge="1" parent="WIyWlLk6GJQsqaUBKTNV-1" source="dtLqzSOW9jpUZC_-jgEE-10" target="dtLqzSOW9jpUZC_-jgEE-3">
          <mxGeometry relative="1" as="geometry" />
        </mxCell>
        <mxCell id="dtLqzSOW9jpUZC_-jgEE-10" value="&lt;font data-font-src=&quot;https://fonts.googleapis.com/css?family=%E5%AE%8B%E4%BD%93&quot; face=&quot;宋体&quot;&gt;种群t&amp;lt;--种群t+1&lt;/font&gt;" style="rounded=0;whiteSpace=wrap;html=1;" vertex="1" parent="WIyWlLk6GJQsqaUBKTNV-1">
          <mxGeometry x="320" y="440" width="100" height="40" as="geometry" />
        </mxCell>
      </root>
    </mxGraphModel>
  </diagram>
</mxfile>
